<?xml version="1.0" encoding="UTF-8" standalone="no"?>
<svg
   viewBox="0 0 2084 2084"
   fill-rule="evenodd"
   clip-rule="evenodd"
   stroke-linejoin="round"
   stroke-miterlimit="2"
   version="1.1"
   id="svg5"
   sodipodi:docname="icon.svg"
   xml:space="preserve"
   inkscape:version="1.3.2 (091e20ef0f, 2023-11-25)"
   xmlns:inkscape="http://www.inkscape.org/namespaces/inkscape"
   xmlns:sodipodi="http://sodipodi.sourceforge.net/DTD/sodipodi-0.dtd"
   xmlns="http://www.w3.org/2000/svg"
   xmlns:svg="http://www.w3.org/2000/svg"><defs
     id="defs5" /><sodipodi:namedview
     id="namedview5"
     pagecolor="#ffffff"
     bordercolor="#000000"
     borderopacity="0.25"
     inkscape:showpageshadow="2"
     inkscape:pageopacity="0.0"
     inkscape:pagecheckerboard="0"
     inkscape:deskcolor="#d1d1d1"
     inkscape:zoom="0.37763916"
     inkscape:cx="1042"
     inkscape:cy="1042"
     inkscape:window-width="1920"
     inkscape:window-height="1043"
     inkscape:window-x="0"
     inkscape:window-y="0"
     inkscape:window-maximized="1"
     inkscape:current-layer="svg5" /><g
     fill-rule="nonzero"
     id="g5"
     transform="matrix(0.90882047,0,0,0.90882047,94.978591,94.97882)"><path
       d="M 1041.67,81.38 1314.107,240.412 488.861,719.097 216.423,561.126 Z m 87.28,371.074 274.024,-159.032 463.937,271.945 -276.14,153.73 z"
       fill="#3b3b3b"
       id="path1" /><path
       d="m 216.42,561.126 v 961.081 l 825.247,479.746 V 1684.95 L 490.445,1363.176 488.858,719.097 Z"
       fill="#2e2e2e"
       id="path2" /><path
       d="m 1866.91,1517.97 -825.246,483.986 V 1684.953 L 1591.828,1364.239 1590.77,719.1 1866.91,565.37 Z"
       fill="#333333"
       id="path3" /><path
       d="m 1590.77,719.097 -549.106,310.112 v 165.393 l 214.246,-122.984 v 488.757 l 138.599,-81.106 V 989.451 L 1590.77,873.888 Z"
       fill="#89c236"
       id="path4" /><path
       d="m 488.858,719.097 1.587,644.079 152.353,90.118 v -198.79 l 230.645,132.527 v 199.319 l 168.753,98.6 v -655.741 z m 383.527,531.166 -227.471,-131.466 v -150.02 l 227.471,127.225 z"
       fill="#7baf31"
       id="path5" /></g></svg>
